<?xml version="1.0" standalone="no"?>
<!DOCTYPE svg PUBLIC "-//W3C//DTD SVG 20010904//EN"
 "http://www.w3.org/TR/2001/REC-SVG-20010904/DTD/svg10.dtd">
<svg version="1.0" xmlns="http://www.w3.org/2000/svg"
 width="626.000000pt" height="626.000000pt" viewBox="0 0 626.000000 626.000000"
 preserveAspectRatio="xMidYMid meet">

<g transform="translate(0.000000,626.000000) scale(0.100000,-0.100000)"
fill="#000000" stroke="none">
<path d="M3065 5802 c-27 -13 -66 -32 -85 -41 -19 -9 -37 -18 -40 -21 -3 -3
-24 -14 -47 -25 -24 -11 -43 -23 -43 -27 0 -5 -5 -8 -10 -8 -17 0 -158 -108
-231 -178 -106 -99 -189 -225 -189 -285 0 -13 -5 -39 -12 -57 -12 -37 1 -153
29 -246 29 -96 117 -206 207 -259 15 -9 17 -40 18 -304 l2 -294 -30 -24 c-16
-14 -39 -34 -52 -44 -12 -10 -26 -19 -30 -19 -4 0 -18 -10 -32 -23 -14 -13
-61 -50 -105 -82 -44 -32 -82 -61 -85 -64 -5 -6 -61 -48 -175 -131 -33 -24
-62 -47 -65 -50 -3 -3 -40 -33 -84 -66 -43 -32 -97 -73 -120 -91 -42 -32 -74
-41 -91 -24 -6 6 -28 14 -50 20 -22 5 -57 14 -78 19 -70 18 -67 1 -67 348 0
301 1 315 20 334 11 11 24 20 29 20 13 0 111 100 122 124 5 12 18 36 30 55 42
70 53 121 53 251 1 100 -2 132 -16 159 -10 19 -18 38 -18 42 0 41 -180 240
-268 297 -30 18 -61 40 -70 48 -31 28 -95 65 -196 116 -151 75 -143 73 -169
61 -259 -122 -388 -206 -515 -332 -126 -127 -163 -195 -188 -352 -7 -40 21
-218 36 -233 6 -6 10 -16 10 -24 0 -28 84 -139 146 -191 l64 -55 -2 -325 -3
-326 -42 -10 c-23 -6 -45 -13 -49 -18 -4 -4 -17 -7 -28 -7 -12 0 -34 -7 -50
-15 -15 -8 -36 -15 -45 -15 -10 0 -21 -3 -25 -7 -11 -11 -99 -43 -117 -43 -9
0 -20 -7 -23 -16 -3 -9 -6 -672 -6 -1475 l0 -1459 125 0 125 0 2 1377 3 1377
25 12 c51 25 98 44 111 44 7 0 26 4 43 9 109 33 285 56 426 55 103 0 305 -21
329 -33 11 -6 32 -11 47 -11 15 0 59 -11 98 -24 39 -13 83 -26 97 -30 15 -3
29 -13 33 -21 3 -9 6 -632 6 -1386 l0 -1369 125 0 125 0 0 1398 0 1397 32 28
c39 34 166 131 224 170 22 15 49 35 60 45 10 10 46 38 79 62 33 24 69 52 80
62 11 10 59 46 106 80 154 113 244 182 247 190 2 4 9 8 16 8 7 0 26 15 44 33
l31 32 1 294 c0 161 3 298 6 302 3 5 97 9 210 9 156 0 204 -3 204 -12 0 -7 0
-144 0 -303 l-1 -291 33 -30 c18 -17 65 -53 103 -79 39 -27 86 -63 106 -79 19
-17 75 -60 124 -96 143 -105 255 -189 380 -285 64 -49 130 -99 146 -110 l29
-20 2 -1060 c1 -583 1 -1214 1 -1403 l-1 -343 124 3 124 3 3 1380 2 1379 50
19 c125 47 410 97 555 97 96 0 356 -36 430 -60 14 -4 54 -16 90 -26 36 -9 71
-22 78 -27 9 -7 12 -297 12 -1388 l0 -1379 125 0 125 0 0 1465 c0 1387 -1
1466 -17 1471 -17 5 -33 11 -116 48 -21 9 -46 16 -55 16 -10 0 -22 4 -27 9 -6
5 -37 16 -70 25 -33 10 -71 20 -85 24 l-25 7 -3 310 c-1 171 0 320 3 332 3 13
20 30 37 39 79 41 192 208 204 302 3 20 9 64 15 97 24 149 -56 314 -226 467
-45 41 -190 148 -199 148 -3 0 -34 17 -68 38 -54 32 -99 55 -203 104 -15 6
-33 4 -65 -10 -78 -33 -134 -61 -185 -92 -27 -16 -57 -33 -65 -37 -8 -3 -18
-11 -22 -17 -4 -6 -11 -11 -15 -11 -20 0 -159 -112 -227 -182 -54 -55 -87
-100 -118 -161 l-43 -85 1 -128 c1 -79 6 -141 14 -161 18 -46 48 -109 63 -133
22 -35 120 -135 133 -135 7 0 20 -10 28 -22 14 -19 16 -68 16 -334 0 -345 3
-328 -67 -346 -21 -5 -56 -14 -78 -19 -22 -6 -44 -14 -50 -20 -24 -24 -55 -8
-166 83 -25 21 -48 38 -52 38 -4 0 -33 21 -65 46 -31 25 -64 51 -73 58 -14 12
-82 63 -165 126 -19 14 -77 57 -131 97 -54 39 -111 83 -128 98 -16 14 -42 33
-57 41 -37 19 -40 51 -36 357 3 245 4 259 23 272 11 8 25 19 32 25 7 5 16 10
20 10 12 0 73 66 73 79 0 6 4 11 8 11 12 0 47 66 70 130 29 81 47 218 33 253
-6 16 -11 39 -11 52 0 44 -59 152 -120 219 -103 113 -274 245 -400 307 -97 48
-188 89 -195 88 -6 -1 -32 -13 -60 -27z m134 -294 c166 -94 318 -220 368 -306
52 -89 22 -227 -66 -304 -172 -151 -615 -143 -756 14 -56 61 -75 109 -75 183
0 41 6 78 16 98 23 44 97 123 169 179 73 57 254 168 273 168 8 0 40 -14 71
-32z m-1990 -489 c112 -63 208 -134 282 -208 96 -95 111 -125 110 -208 -2
-137 -91 -230 -266 -280 -84 -24 -306 -23 -394 1 -122 33 -188 80 -236 167
-35 65 -40 167 -10 214 39 61 78 104 142 156 83 68 272 188 297 188 11 1 44
-13 75 -30z m4032 -31 c188 -113 297 -216 335 -313 36 -95 -17 -223 -120 -293
-87 -58 -170 -77 -336 -76 -190 1 -292 30 -376 106 -76 70 -109 209 -69 289
34 66 194 209 315 282 62 37 121 67 130 67 9 0 64 -28 121 -62z m-4139 -953
c10 -1 64 1 120 5 68 6 107 5 116 -2 9 -8 12 -68 12 -238 0 -171 -3 -230 -12
-236 -7 -5 -101 -7 -208 -4 l-195 5 -3 229 c-2 156 1 233 9 242 10 12 98 12
161 -1z m4223 -235 l0 -241 -202 -2 c-161 -2 -204 1 -208 11 -6 16 -7 467 -1
473 2 2 96 3 208 3 l203 -2 0 -242z"/>
<path d="M3110 3591 c0 -5 -26 -53 -58 -108 -33 -54 -75 -127 -95 -163 l-36
-65 -210 -3 c-116 -1 -211 -6 -211 -10 0 -4 4 -12 9 -17 5 -6 20 -30 34 -55
13 -25 54 -96 91 -159 36 -62 66 -120 66 -127 0 -8 -11 -32 -25 -54 -14 -22
-25 -42 -25 -44 0 -2 -22 -41 -50 -85 -27 -44 -50 -83 -50 -86 0 -3 -11 -23
-25 -45 -14 -22 -25 -42 -25 -45 0 -2 95 -6 212 -7 l211 -3 24 -40 c13 -22 28
-49 34 -60 5 -11 15 -29 22 -40 23 -38 82 -140 98 -169 19 -37 37 -44 46 -19
3 10 9 20 13 23 5 4 66 108 93 160 4 8 13 24 20 35 7 11 25 41 41 68 l28 47
209 0 c115 0 209 2 209 5 0 3 -11 23 -25 45 -14 22 -25 44 -25 49 0 5 -6 14
-14 20 -8 7 -21 26 -30 44 -9 18 -21 39 -26 47 -30 46 -80 144 -80 156 0 8 11
32 25 54 14 22 25 42 25 45 0 3 16 31 35 61 19 30 35 56 35 59 0 3 18 34 40
70 22 36 40 68 40 70 0 3 -94 5 -210 5 l-210 0 -21 43 c-12 23 -31 56 -43 72
-12 17 -28 44 -36 60 -37 75 -103 175 -116 175 -8 0 -14 -4 -14 -9z m59 -265
c17 -29 31 -56 31 -60 0 -3 -31 -6 -70 -6 -77 0 -84 7 -50 50 11 14 20 30 20
36 0 12 21 34 31 34 4 0 21 -24 38 -54z m-343 -200 c5 -14 -36 -88 -55 -101
-11 -6 -71 80 -71 102 0 19 119 18 126 -1z m522 -109 c40 -68 72 -126 72 -131
0 -4 -32 -63 -71 -131 l-71 -125 -148 0 -147 0 -66 113 c-36 61 -69 120 -72
130 -5 11 16 57 66 142 l73 125 146 0 146 0 72 -123z m212 113 c0 -12 -38 -81
-53 -97 -7 -7 -17 -9 -22 -5 -19 13 -56 85 -51 98 6 16 126 20 126 4z m-764
-416 c3 -13 12 -28 20 -35 8 -6 14 -20 14 -30 0 -17 -8 -19 -65 -19 -76 0 -78
4 -35 72 32 51 55 55 66 12z m738 -18 c14 -25 26 -49 26 -55 0 -7 -25 -11 -65
-11 -74 0 -78 6 -43 67 37 65 44 64 82 -1z m-336 -194 c2 -6 -5 -24 -15 -39
-10 -16 -23 -37 -29 -48 -6 -11 -17 -20 -24 -20 -17 0 -73 93 -66 110 6 17
128 14 134 -3z"/>
<path d="M1019 2763 c-3 -53 2 -306 6 -313 7 -12 235 -14 235 -2 0 4 1 77 1
162 l1 155 -121 3 c-67 1 -121 -1 -122 -5z"/>
<path d="M5000 2763 c-1 -2 -1 -73 -1 -159 l-1 -156 119 -1 118 -2 3 160 2
161 -120 -1 c-66 0 -120 -1 -120 -2z"/>
<path d="M1020 2075 c0 -3 -1 -74 -1 -157 l0 -153 123 0 123 0 -1 155 0 155
-122 3 c-67 1 -122 0 -122 -3z"/>
<path d="M4999 2073 c0 -4 0 -75 0 -158 l0 -150 121 0 121 0 0 155 0 155 -120
3 c-67 1 -121 -1 -122 -5z"/>
<path d="M3070 1760 c-8 -5 -25 -10 -38 -10 -26 0 -112 -37 -112 -48 0 -4 -14
-13 -30 -21 -30 -13 -110 -109 -110 -131 0 -6 -7 -24 -15 -39 -12 -24 -15
-113 -17 -540 l-3 -511 129 0 c101 0 127 3 120 13 -5 6 -7 222 -4 484 5 456 6
472 26 500 31 43 98 73 137 62 45 -13 78 -39 98 -80 17 -31 18 -74 19 -496 1
-254 -1 -467 -5 -473 -4 -7 37 -10 122 -10 l128 0 -2 507 c-3 557 0 526 -66
635 -26 44 -88 96 -147 125 -62 31 -204 51 -230 33z"/>
</g>
</svg>
